<?xml version="1.0" encoding="utf-8"?>
<!-- Generator: Adobe Illustrator 17.1.0, SVG Export Plug-In . SVG Version: 6.00 Build 0)  -->
<!DOCTYPE svg PUBLIC "-//W3C//DTD SVG 1.1//EN" "http://www.w3.org/Graphics/SVG/1.1/DTD/svg11.dtd">
<svg version="1.1" id="Layer_1" xmlns="http://www.w3.org/2000/svg" xmlns:xlink="http://www.w3.org/1999/xlink" x="0px" y="0px"
	 viewBox="0 0 343 100" enable-background="new 0 0 343 100" xml:space="preserve">
<g>
	<g>
		<path fill="#777777" d="M136.7,19.8c-0.9-0.4-1.9-1-3.9-1c-4.9,0-8.6,4-8.6,9.4c0,4.8,3,7.4,6.5,7.4c1.5,0,3.1-0.3,4.3-0.9
			l0.7,1.7c-1.5,0.7-3.6,1.2-5.4,1.2c-4.4,0-9-2.8-9-9.3c0-7.5,6.2-11.5,11.8-11.5c2.3,0,4.2,1,4.8,1.6L136.7,19.8z"/>
		<path fill="#777777" d="M151.1,28.9c0,4.5-3,8.8-7.3,8.8c-4.1,0-5.8-3.5-5.8-6.3c0-4.3,2.9-8.7,7.8-8.7
			C148.7,22.6,151.1,25.1,151.1,28.9z M140.5,31.3c0,1.2,0.4,4.6,3.4,4.6c2.8,0,4.7-3.4,4.7-7c0-1-0.1-4.6-3.1-4.6
			C142.3,24.3,140.5,27.9,140.5,31.3z"/>
		<path fill="#777777" d="M152.8,37.3l4-21.1h2.3l-4,21.1H152.8z"/>
		<path fill="#777777" d="M159.3,37.3l4-21.1h2.3l-4,21.1H159.3z"/>
		<path fill="#777777" d="M176,36.2c-1.9,1-3.8,1.4-5.6,1.4c-3,0-4.5-2.2-4.5-5.3c0-4.3,3.6-9.7,8.7-9.7c1.6,0,3.4,0.9,3.4,3.3
			c0,3.4-4.9,5.6-9.6,5.3c-0.1,2,0.1,4.7,3,4.7c1.5,0,3.1-0.7,3.8-1.1L176,36.2z M175.5,26.3c0.1-1.2-0.7-2-1.7-2
			c-2,0-4.5,2.4-5.1,5.2C172.7,29.9,175.3,28,175.5,26.3z"/>
		<path fill="#777777" d="M190.4,36.8c-1,5.5-4.5,7.7-8,7.7c-1.9,0-3.7-0.4-5.1-1.4l1-1.7c1.4,1,2.8,1.3,4.4,1.3
			c2.7,0,4.7-1.9,5.4-5.7l0.5-2.4l-0.1-0.1c-0.6,0.9-2.8,3.1-5.3,3.1c-2.2,0-4-2.2-4-5.3c0-5.2,3.6-9.8,8-9.8c1.2,0,2.6,0.7,3.2,2
			h0.1l0.3-1.6h2.4L190.4,36.8z M187,24.3c-2.9,0-5.5,3-5.5,7.9c0,2.2,0.9,3.4,2.4,3.4c2.3,0,5.4-3.2,5.8-8.4
			C190,26,188.6,24.3,187,24.3z"/>
		<path fill="#777777" d="M204.7,36.2c-1.9,1-3.8,1.4-5.6,1.4c-3,0-4.5-2.2-4.5-5.3c0-4.3,3.6-9.7,8.7-9.7c1.6,0,3.4,0.9,3.4,3.3
			c0,3.4-4.9,5.6-9.6,5.3c-0.1,2,0.1,4.7,3,4.7c1.5,0,3.1-0.7,3.8-1.1L204.7,36.2z M204.2,26.3c0.1-1.2-0.7-2-1.7-2
			c-2,0-4.5,2.4-5.1,5.2C201.4,29.9,204,28,204.2,26.3z"/>
		<path fill="#777777" d="M228.9,28.9c0,4.5-3,8.8-7.3,8.8c-4.1,0-5.8-3.5-5.8-6.3c0-4.3,2.9-8.7,7.8-8.7
			C226.5,22.6,228.9,25.1,228.9,28.9z M218.3,31.3c0,1.2,0.4,4.6,3.4,4.6c2.8,0,4.7-3.4,4.7-7c0-1-0.1-4.6-3.1-4.6
			C220.2,24.3,218.3,27.9,218.3,31.3z"/>
		<path fill="#777777" d="M230.9,37.3l2.4-12.8h-2.1l0.3-1.5h2.1l0.3-1.8c0.7-4,3-5,4.7-5c0.7,0,1.4,0.3,1.9,0.6l-0.7,1.3
			c-0.3-0.1-0.7-0.2-1.2-0.2c-0.4,0-1.7,0.1-2.2,2.4l-0.5,2.6h3.1l-0.3,1.5h-3.1l-2.4,12.8H230.9z"/>
	</g>
</g>
<g>
	<path fill="#777777" d="M137,52.4H126v10h10.7v3.1H126v11.6h12.8v3.1h-17.1V49.3H137V52.4z"/>
	<path fill="#777777" d="M147.1,60.9c2.1-2.2,5.2-3.3,7.5-3.3c5.1,0,7.8,2.8,7.8,8.4v14.2h-4V66.8c0-4.1-1.8-6.3-5.3-6.3
		c-3.1,0-6,2.2-6,6.4v13.3h-4v-22h3.9V60.9z"/>
	<path fill="#777777" d="M187.6,79.4c0,8.4-5.2,11.8-11.2,11.8c-3.3,0-6.5-0.6-9.1-2.2l1.1-2.6c2.7,1.5,5.2,2,7.9,2
		c4.5,0,7.3-2.9,7.3-8.7v-3h-0.1c-1.5,2.2-3.9,4-7.4,4c-6.1,0-9.9-4.8-9.9-11.8c0-5.7,4.2-11.3,10.5-11.3c2.6,0,5.5,1.3,6.7,3.6h0.1
		v-3h4V79.4z M183.7,68.5c0-4.1-2.2-8-6.6-8c-4.6,0-6.5,3.6-6.5,8.3c0,4.7,2,9.2,6.2,9.2C181.7,77.9,183.7,73.3,183.7,68.5z"/>
	<path fill="#777777" d="M193.5,50.9c0-1.1,0.9-2.3,2.5-2.3c1.6,0,2.5,1.2,2.5,2.3c0,1.2-0.6,2.7-2.5,2.7
		C194.1,53.6,193.5,52.1,193.5,50.9z M198,58.2v22h-4v-22H198z"/>
	<path fill="#777777" d="M208.5,60.9c2.1-2.2,5.2-3.3,7.5-3.3c5.1,0,7.8,2.8,7.8,8.4v14.2h-4V66.8c0-4.1-1.8-6.3-5.3-6.3
		c-3.1,0-6,2.2-6,6.4v13.3h-4v-22h3.9V60.9z"/>
	<path fill="#777777" d="M230.7,69.4c0,4.4,3.1,8.5,7.4,8.5c2,0,4.5-0.7,6-1.9l1.1,2.2c-2.3,1.6-5,2.6-7.3,2.6
		c-6.9,0-11.4-4.2-11.4-12c0-7.6,5.5-11.1,10.4-11.1c6.7,0,8.9,6,8.5,11.8H230.7z M241.9,66.8c0-3.4-1.5-6.3-4.9-6.3
		c-4.2,0-5.9,3.5-6,6.3H241.9z"/>
	<path fill="#777777" d="M253,69.4c0,4.4,3.1,8.5,7.4,8.5c2,0,4.5-0.7,6-1.9l1.1,2.2c-2.3,1.6-5,2.6-7.3,2.6
		c-6.9,0-11.4-4.2-11.4-12c0-7.6,5.5-11.1,10.4-11.1c6.7,0,8.9,6,8.5,11.8H253z M264.3,66.8c0-3.4-1.5-6.3-4.9-6.3
		c-4.2,0-5.9,3.5-6,6.3H264.3z"/>
	<path fill="#777777" d="M276.6,60.9l1.6-1.7c0.9-0.9,2.4-1.6,3.3-1.6c1,0,2.4,0.7,3.7,2.2l-1.8,2.6c-1-0.5-1.9-0.9-3-0.9
		c-2,0-3.7,2-3.7,6.9v11.8h-4v-22h3.9V60.9z"/>
	<path fill="#777777" d="M287.6,50.9c0-1.1,0.9-2.3,2.5-2.3s2.5,1.2,2.5,2.3c0,1.2-0.6,2.7-2.5,2.7S287.6,52.1,287.6,50.9z
		 M292.1,58.2v22h-4v-22H292.1z"/>
	<path fill="#777777" d="M302.5,60.9c2.1-2.2,5.2-3.3,7.5-3.3c5.1,0,7.8,2.8,7.8,8.4v14.2h-4V66.8c0-4.1-1.8-6.3-5.3-6.3
		c-3.1,0-6,2.2-6,6.4v13.3h-4v-22h3.9V60.9z"/>
	<path fill="#777777" d="M343,79.4c0,8.4-5.2,11.8-11.2,11.8c-3.3,0-6.5-0.6-9.1-2.2l1.1-2.6c2.7,1.5,5.2,2,7.9,2
		c4.5,0,7.3-2.9,7.3-8.7v-3h-0.1c-1.5,2.2-3.9,4-7.4,4c-6.1,0-9.9-4.8-9.9-11.8c0-5.7,4.2-11.3,10.5-11.3c2.6,0,5.5,1.3,6.7,3.6h0.1
		v-3h4V79.4z M339,68.5c0-4.1-2.2-8-6.6-8c-4.6,0-6.5,3.6-6.5,8.3c0,4.7,2,9.2,6.2,9.2C337,77.9,339,73.3,339,68.5z"/>
</g>
<g>
	<g>
		<g>
			<defs>
				<rect id="SVGID_4_" x="2.7" y="2.7" width="94.6" height="94.6"/>
			</defs>
			<clipPath id="SVGID_1_">
				<use xlink:href="#SVGID_4_"  overflow="visible"/>
			</clipPath>
			<rect x="2.7" y="2.7" clip-path="url(#SVGID_1_)" fill="#8B2332" width="94.6" height="94.6"/>
			<circle clip-path="url(#SVGID_1_)" fill="#8B2332" cx="50" cy="50" r="47.3"/>
			<circle clip-path="url(#SVGID_1_)" fill="#8C2232" cx="50" cy="50" r="46.5"/>
			<path clip-path="url(#SVGID_1_)" fill="#8D2232" d="M95.7,50c0,25.2-20.5,45.7-45.7,45.7S4.3,75.2,4.3,50
				C4.3,24.8,24.8,4.3,50,4.3S95.7,24.8,95.7,50z"/>
			<path clip-path="url(#SVGID_1_)" fill="#8D2232" d="M94.9,50c0,24.8-20.1,44.9-44.9,44.9C25.2,94.9,5.1,74.8,5.1,50
				C5.1,25.2,25.2,5.1,50,5.1C74.8,5.1,94.9,25.2,94.9,50z"/>
			<circle clip-path="url(#SVGID_1_)" fill="#8E2332" cx="50" cy="50" r="44.1"/>
			<circle clip-path="url(#SVGID_1_)" fill="#902332" cx="50" cy="50" r="43.2"/>
			<path clip-path="url(#SVGID_1_)" fill="#902232" d="M92.4,50c0,23.4-19,42.4-42.4,42.4c-23.4,0-42.4-19-42.4-42.4
				c0-23.4,19-42.4,42.4-42.4C73.4,7.6,92.4,26.6,92.4,50z"/>
			<path clip-path="url(#SVGID_1_)" fill="#912232" d="M91.6,50C91.6,73,73,91.6,50,91.6C27,91.6,8.4,73,8.4,50
				C8.4,27,27,8.4,50,8.4C73,8.4,91.6,27,91.6,50z"/>
			<path clip-path="url(#SVGID_1_)" fill="#922333" d="M90.8,50c0,22.5-18.3,40.8-40.8,40.8S9.2,72.5,9.2,50
				C9.2,27.5,27.5,9.2,50,9.2S90.8,27.5,90.8,50z"/>
			<circle clip-path="url(#SVGID_1_)" fill="#932332" cx="50" cy="50" r="40"/>
			<circle clip-path="url(#SVGID_1_)" fill="#942333" cx="50" cy="50" r="39.2"/>
			<path clip-path="url(#SVGID_1_)" fill="#952232" d="M88.3,50c0,21.2-17.2,38.3-38.3,38.3c-21.2,0-38.3-17.2-38.3-38.3
				c0-21.2,17.2-38.3,38.3-38.3C71.2,11.7,88.3,28.8,88.3,50z"/>
			<path clip-path="url(#SVGID_1_)" fill="#962233" d="M87.5,50c0,20.7-16.8,37.5-37.5,37.5c-20.7,0-37.5-16.8-37.5-37.5
				c0-20.7,16.8-37.5,37.5-37.5C70.7,12.5,87.5,29.3,87.5,50z"/>
			<circle clip-path="url(#SVGID_1_)" fill="#972333" cx="50" cy="50" r="36.7"/>
			<circle clip-path="url(#SVGID_1_)" fill="#982333" cx="50" cy="50" r="35.9"/>
			<path clip-path="url(#SVGID_1_)" fill="#982333" d="M85.1,50c0,19.4-15.7,35.1-35.1,35.1c-19.4,0-35.1-15.7-35.1-35.1
				c0-19.4,15.7-35.1,35.1-35.1C69.4,14.9,85.1,30.6,85.1,50z"/>
			<path clip-path="url(#SVGID_1_)" fill="#9A2233" d="M84.3,50c0,18.9-15.3,34.3-34.3,34.3c-18.9,0-34.3-15.3-34.3-34.3
				c0-18.9,15.3-34.3,34.3-34.3C68.9,15.7,84.3,31.1,84.3,50z"/>
			<path clip-path="url(#SVGID_1_)" fill="#9B2233" d="M83.4,50c0,18.5-15,33.5-33.4,33.5c-18.5,0-33.4-15-33.4-33.5
				c0-18.5,15-33.4,33.4-33.4C68.5,16.6,83.4,31.5,83.4,50z"/>
			<path clip-path="url(#SVGID_1_)" fill="#9B2333" d="M82.6,50C82.6,68,68,82.6,50,82.6C32,82.6,17.4,68,17.4,50S32,17.4,50,17.4
				C68,17.4,82.6,32,82.6,50z"/>
			<path clip-path="url(#SVGID_1_)" fill="#9C2333" d="M81.8,50c0,17.6-14.2,31.8-31.8,31.8c-17.6,0-31.8-14.2-31.8-31.8
				c0-17.6,14.2-31.8,31.8-31.8C67.6,18.2,81.8,32.4,81.8,50z"/>
			<path clip-path="url(#SVGID_1_)" fill="#9D2333" d="M81,50c0,17.1-13.9,31-31,31c-17.1,0-31-13.9-31-31c0-17.1,13.9-31,31-31
				C67.1,19,81,32.9,81,50z"/>
			<path clip-path="url(#SVGID_1_)" fill="#9E2333" d="M80.2,50c0,16.7-13.5,30.2-30.2,30.2c-16.7,0-30.2-13.5-30.2-30.2
				c0-16.7,13.5-30.2,30.2-30.2C66.7,19.8,80.2,33.3,80.2,50z"/>
			<path clip-path="url(#SVGID_1_)" fill="#9F2233" d="M79.4,50c0,16.2-13.2,29.4-29.4,29.4c-16.2,0-29.4-13.2-29.4-29.4
				c0-16.2,13.2-29.4,29.4-29.4C66.2,20.6,79.4,33.8,79.4,50z"/>
			<circle clip-path="url(#SVGID_1_)" fill="#A02233" cx="50" cy="50" r="28.6"/>
			<path clip-path="url(#SVGID_1_)" fill="#A12333" d="M77.7,50c0,15.3-12.4,27.7-27.7,27.7c-15.3,0-27.7-12.4-27.7-27.7
				c0-15.3,12.4-27.7,27.7-27.7C65.3,22.3,77.7,34.7,77.7,50z"/>
			<path clip-path="url(#SVGID_1_)" fill="#A22333" d="M76.9,50c0,14.9-12.1,26.9-26.9,26.9c-14.9,0-26.9-12.1-26.9-26.9
				c0-14.9,12.1-26.9,26.9-26.9C64.9,23.1,76.9,35.1,76.9,50z"/>
			<path clip-path="url(#SVGID_1_)" fill="#A42333" d="M76.1,50c0,14.4-11.7,26.1-26.1,26.1c-14.4,0-26.1-11.7-26.1-26.1
				c0-14.4,11.7-26.1,26.1-26.1C64.4,23.9,76.1,35.6,76.1,50z"/>
			<path clip-path="url(#SVGID_1_)" fill="#A42233" d="M75.3,50C75.3,64,64,75.3,50,75.3C36,75.3,24.7,64,24.7,50
				C24.7,36,36,24.7,50,24.7C64,24.7,75.3,36,75.3,50z"/>
			<path clip-path="url(#SVGID_1_)" fill="#A52233" d="M74.5,50c0,13.5-11,24.5-24.5,24.5c-13.5,0-24.5-11-24.5-24.5
				c0-13.5,11-24.5,24.5-24.5C63.5,25.5,74.5,36.5,74.5,50z"/>
			<path clip-path="url(#SVGID_1_)" fill="#A72333" d="M73.7,50c0,13.1-10.6,23.7-23.7,23.7c-13.1,0-23.7-10.6-23.7-23.7
				c0-13.1,10.6-23.7,23.7-23.7C63.1,26.3,73.7,36.9,73.7,50z"/>
			<path clip-path="url(#SVGID_1_)" fill="#A72333" d="M72.8,50c0,12.6-10.2,22.8-22.8,22.8c-12.6,0-22.8-10.2-22.8-22.8
				c0-12.6,10.2-22.8,22.8-22.8C62.6,27.2,72.8,37.4,72.8,50z"/>
			<path clip-path="url(#SVGID_1_)" fill="#A92333" d="M72,50c0,12.2-9.9,22-22,22c-12.2,0-22-9.9-22-22c0-12.2,9.9-22,22-22
				C62.2,28,72,37.8,72,50z"/>
			<path clip-path="url(#SVGID_1_)" fill="#A92233" d="M71.2,50c0,11.7-9.5,21.2-21.2,21.2c-11.7,0-21.2-9.5-21.2-21.2
				c0-11.7,9.5-21.2,21.2-21.2C61.7,28.8,71.2,38.3,71.2,50z"/>
			<path clip-path="url(#SVGID_1_)" fill="#AA2233" d="M70.4,50c0,11.3-9.1,20.4-20.4,20.4c-11.3,0-20.4-9.1-20.4-20.4
				c0-11.3,9.1-20.4,20.4-20.4C61.3,29.6,70.4,38.7,70.4,50z"/>
			<path clip-path="url(#SVGID_1_)" fill="#AC2233" d="M69.6,50c0,10.8-8.8,19.6-19.6,19.6S30.4,60.8,30.4,50
				c0-10.8,8.8-19.6,19.6-19.6S69.6,39.2,69.6,50z"/>
			<circle clip-path="url(#SVGID_1_)" fill="#AC2233" cx="50" cy="50" r="18.8"/>
			<path clip-path="url(#SVGID_1_)" fill="#AD2233" d="M67.9,50c0,9.9-8,18-17.9,18c-9.9,0-17.9-8-17.9-18c0-9.9,8-17.9,17.9-17.9
				C59.9,32.1,67.9,40.1,67.9,50z"/>
			<path clip-path="url(#SVGID_1_)" fill="#AE2133" d="M67.1,50c0,9.5-7.7,17.1-17.1,17.1c-9.5,0-17.1-7.7-17.1-17.1
				c0-9.5,7.7-17.1,17.1-17.1C59.5,32.9,67.1,40.5,67.1,50z"/>
			<path clip-path="url(#SVGID_1_)" fill="#AF2233" d="M66.3,50c0,9-7.3,16.3-16.3,16.3c-9,0-16.3-7.3-16.3-16.3
				c0-9,7.3-16.3,16.3-16.3C59,33.7,66.3,41,66.3,50z"/>
			<path clip-path="url(#SVGID_1_)" fill="#B02233" d="M65.5,50c0,8.6-6.9,15.5-15.5,15.5c-8.6,0-15.5-6.9-15.5-15.5
				c0-8.6,6.9-15.5,15.5-15.5C58.6,34.5,65.5,41.4,65.5,50z"/>
			<circle clip-path="url(#SVGID_1_)" fill="#B12233" cx="50" cy="50" r="14.7"/>
			<circle clip-path="url(#SVGID_1_)" fill="#B22233" cx="50" cy="50" r="13.9"/>
			<path clip-path="url(#SVGID_1_)" fill="#B32133" d="M63,50c0,7.2-5.8,13.1-13.1,13.1c-7.2,0-13.1-5.8-13.1-13.1
				c0-7.2,5.8-13.1,13.1-13.1C57.2,36.9,63,42.8,63,50z"/>
			<path clip-path="url(#SVGID_1_)" fill="#B42133" d="M62.2,50c0,6.8-5.5,12.2-12.2,12.2c-6.8,0-12.2-5.5-12.2-12.2
				c0-6.8,5.5-12.2,12.2-12.2C56.8,37.8,62.2,43.2,62.2,50z"/>
			<circle clip-path="url(#SVGID_1_)" fill="#B52133" cx="50" cy="50" r="11.4"/>
			<path clip-path="url(#SVGID_1_)" fill="#B62133" d="M60.6,50c0,5.9-4.8,10.6-10.6,10.6c-5.9,0-10.6-4.7-10.6-10.6
				c0-5.9,4.8-10.6,10.6-10.6C55.9,39.4,60.6,44.1,60.6,50z"/>
			<path clip-path="url(#SVGID_1_)" fill="#B72133" d="M59.8,50c0,5.4-4.4,9.8-9.8,9.8c-5.4,0-9.8-4.4-9.8-9.8
				c0-5.4,4.4-9.8,9.8-9.8C55.4,40.2,59.8,44.6,59.8,50z"/>
			<path clip-path="url(#SVGID_1_)" fill="#B82033" d="M59,50c0,5-4,9-9,9c-5,0-9-4-9-9c0-5,4-9,9-9C55,41,59,45,59,50z"/>
			<path clip-path="url(#SVGID_1_)" fill="#B92033" d="M58.2,50c0,4.5-3.7,8.2-8.2,8.2c-4.5,0-8.2-3.6-8.2-8.2
				c0-4.5,3.7-8.2,8.2-8.2C54.5,41.8,58.2,45.5,58.2,50z"/>
			<circle clip-path="url(#SVGID_1_)" fill="#BA2133" cx="50" cy="50" r="7.3"/>
			<path clip-path="url(#SVGID_1_)" fill="#BB2133" d="M56.5,50c0,3.6-2.9,6.5-6.5,6.5c-3.6,0-6.5-2.9-6.5-6.5
				c0-3.6,2.9-6.5,6.5-6.5C53.6,43.5,56.5,46.4,56.5,50z"/>
			<path clip-path="url(#SVGID_1_)" fill="#BC2132" d="M55.7,50c0,3.2-2.6,5.7-5.7,5.7c-3.2,0-5.7-2.6-5.7-5.7
				c0-3.1,2.6-5.7,5.7-5.7C53.2,44.3,55.7,46.8,55.7,50z"/>
			<path clip-path="url(#SVGID_1_)" fill="#BD2033" d="M54.9,50c0,2.7-2.2,4.9-4.9,4.9c-2.7,0-4.9-2.2-4.9-4.9
				c0-2.7,2.2-4.9,4.9-4.9C52.7,45.1,54.9,47.3,54.9,50z"/>
			<circle clip-path="url(#SVGID_1_)" fill="#BE2032" cx="50" cy="50" r="4.1"/>
			<circle clip-path="url(#SVGID_1_)" fill="#BF2033" cx="50" cy="50" r="3.3"/>
			<path clip-path="url(#SVGID_1_)" fill="#C02032" d="M52.4,50c0,1.4-1.1,2.4-2.4,2.4c-1.4,0-2.4-1.1-2.4-2.4
				c0-1.3,1.1-2.4,2.4-2.4C51.4,47.6,52.4,48.7,52.4,50z"/>
			<path clip-path="url(#SVGID_1_)" fill="#C12032" d="M51.6,50c0,0.9-0.7,1.6-1.6,1.6c-0.9,0-1.6-0.7-1.6-1.6
				c0-0.9,0.7-1.6,1.6-1.6C50.9,48.4,51.6,49.1,51.6,50z"/>
			<path clip-path="url(#SVGID_1_)" fill="#C22032" d="M50.8,50c0,0.4-0.4,0.8-0.8,0.8c-0.4,0-0.8-0.4-0.8-0.8
				c0-0.4,0.4-0.8,0.8-0.8C50.4,49.2,50.8,49.5,50.8,50z"/>
		</g>
		<linearGradient id="SVGID_2_" gradientUnits="userSpaceOnUse" x1="0" y1="49.9999" x2="99.9985" y2="49.9999">
			<stop  offset="0" style="stop-color:#A8A2A0"/>
			<stop  offset="9.890110e-02" style="stop-color:#6C6361"/>
			<stop  offset="0.3077" style="stop-color:#A8A2A0"/>
			<stop  offset="0.4341" style="stop-color:#6C6361"/>
			<stop  offset="0.5495" style="stop-color:#CDC9C8"/>
			<stop  offset="0.6758" style="stop-color:#524A48"/>
			<stop  offset="0.8352" style="stop-color:#D1CDCC"/>
			<stop  offset="1" style="stop-color:#5E5654"/>
		</linearGradient>
		<path fill="url(#SVGID_2_)" d="M97.3,100H2.7C1.2,100,0,98.8,0,97.3V2.7C0,1.2,1.2,0,2.7,0h94.6c1.5,0,2.7,1.2,2.7,2.7v94.6
			C100,98.8,98.8,100,97.3,100z M5.4,94.6h89.3V5.4H5.4V94.6z"/>
	</g>
	<g>
		<path fill="#FFFFFF" d="M97.3,97.8H2.7c-0.3,0-0.5-0.2-0.5-0.5V2.7c0-0.3,0.2-0.5,0.5-0.5h94.6c0.3,0,0.5,0.2,0.5,0.5v94.6
			C97.8,97.6,97.6,97.8,97.3,97.8z M3.2,96.8h93.6V3.2H3.2V96.8z"/>
	</g>
	<g>
		<path fill="#FFFFFF" d="M83.9,75.5c-6.3,3.2-10.9,2.6-11.4-1.3c-0.6-4.4-0.3-10.5,0-12.8c0.1-0.9,0.3-3.6,0.5-4.5
			c2.1-0.4,5-1.5,5,2.2c1.1-0.5,3.1-2.2,3.4-3.9c1.9-8.9-7.4-6.6-7.4-6.6c2.3-10.5,4.7-21.7,9.9-31l-5.2-2.5
			c-3.5,2.7-7.1,5.4-10,5.9c-2.7,0.7-19.2,1.9-18-5.6c-1.8,0.1-2.9,2.3-2.9,4.2c0.6,8.1,11.2,6.5,17.6,7.3
			c-6.7,8.3-12.5,17-17.8,25.9c-4.2,0.8-4.7-4.4-4-5.8c0,0-2.8,0.8-3.8,3.8c-1.3,3.2,0.2,8.6,4.7,8.9c-4.5,7.8-9.8,20.7-20.8,18.1
			c-3.7-0.8-7.9-7-5.7-10.6c1.4-1.9-0.7-3.2-3-0.4c-5.7,6.3-0.2,18.8,11.7,18C39.4,85,48,69.1,52.7,59.7l12.1-1.9L64,67.7
			c-1.5,24.6,16.2,15.1,16.2,15.1c2.5-1.1,5-3.8,5-7C85.1,74.8,84.5,75.2,83.9,75.5z M65.8,50.4l-9.2,1.1
			c4.6-7.3,7.1-14.1,14.5-21.5C69.1,36.5,67.4,43.8,65.8,50.4z"/>
		<path fill="#FFFFFF" d="M86.4,80.7c-0.9,0-1.6,0.7-1.6,1.6c0,0.9,0.7,1.6,1.6,1.6c0.9,0,1.6-0.7,1.6-1.6
			C88,81.4,87.3,80.7,86.4,80.7z M86.4,83.6c-0.7,0-1.2-0.6-1.2-1.2c0-0.7,0.6-1.2,1.2-1.2c0.7,0,1.2,0.6,1.2,1.2
			C87.6,83,87.1,83.6,86.4,83.6z"/>
		<path fill="#FFFFFF" d="M87,81.9c0-0.3-0.2-0.5-0.5-0.5h-0.8v1.8h0.3v-0.7h0.2l0.3,0.7H87l-0.4-0.8C86.9,82.4,87,82.2,87,81.9z
			 M86.5,82.1h-0.4v-0.4h0.4c0.1,0,0.2,0.1,0.2,0.2C86.7,82.1,86.6,82.1,86.5,82.1z"/>
	</g>
</g>
</svg>
